<svg width="16" height="16" viewBox="0 0 16 16" fill="none" xmlns="http://www.w3.org/2000/svg">
<path fill-rule="evenodd" clip-rule="evenodd" d="M0.5 2H0V2.5V11.5C0 12.8807 1.11929 14 2.5 14H13.5C14.8807 14 16 12.8807 16 11.5V4.5C16 3.11929 14.8807 2 13.5 2H0.5ZM1 11.5V3H13.5C14.3284 3 15 3.67157 15 4.5V11.5C15 12.3284 14.3284 13 13.5 13H2.5C1.67157 13 1 12.3284 1 11.5ZM9.25 8C8.73151 7.6994 8.3006 7.26849 8 6.75C7.6994 7.26849 7.26849 7.6994 6.75 8C7.26849 8.3006 7.6994 8.73151 8 9.25C8.3006 8.73151 8.73151 8.3006 9.25 8ZM4.25 6.75C4.5506 7.26849 4.98151 7.6994 5.5 8C4.98151 8.3006 4.5506 8.73151 4.25 9.25C3.9494 8.73151 3.51849 8.3006 3 8C3.51849 7.6994 3.9494 7.26849 4.25 6.75ZM13 8C12.4815 7.6994 12.0506 7.26849 11.75 6.75C11.4494 7.26849 11.0185 7.6994 10.5 8C11.0185 8.3006 11.4494 8.73151 11.75 9.25C12.0506 8.73151 12.4815 8.3006 13 8Z" fill="#4E4272"/>
</svg>
