<svg width="16" height="16" viewBox="0 0 16 16" fill="none" xmlns="http://www.w3.org/2000/svg">
<g clip-path="url(#clip0_938_233779)">
<path fill-rule="evenodd" clip-rule="evenodd" d="M14.6087 8.86476L14.1362 2.43948C14.0581 1.62081 13.3705 0.995623 12.5481 0.995623L4.99451 0.995622L4.99451 9.88427C4.99451 10.1545 5.03168 10.1954 5.13099 10.3045C5.14922 10.3245 5.16955 10.3468 5.19212 10.3733C6.19683 11.5513 6.48985 12.4682 6.88148 13.6936C6.96621 13.9588 7.05556 14.2384 7.15773 14.5382C7.37244 15.0558 7.83314 15.5946 8.3368 15.3489C9.28616 14.8859 9.83699 14.0801 9.72832 12.827L9.72832 12.8269C9.65367 11.9661 9.58458 11.1694 9.5115 10.6539C9.47807 10.4181 9.68824 10.1781 9.9247 10.2062L13.1249 10.5857C13.2274 10.5888 13.3306 10.5843 13.4297 10.5582C14.1764 10.3608 14.6834 9.64851 14.6087 8.86476ZM1.3 10.0001L4 10.0001L4.00001 1.00014L1.30001 1.00014C1.13432 1.00014 1.00001 1.14526 1.00001 1.32427L1 9.676C1 9.85502 1.13432 10.0001 1.3 10.0001Z" fill="#757575"/>
</g>
<defs>
<clipPath id="clip0_938_233779">
<rect width="16" height="16" fill="white"/>
</clipPath>
</defs>
</svg>
