<svg width="16" height="16" viewBox="0 0 16 16" fill="none" xmlns="http://www.w3.org/2000/svg">
<g clip-path="url(#clip0_4326_54256)">
<path fill-rule="evenodd" clip-rule="evenodd" d="M4.93438 1C4.46621 1.12367 4.09521 1.36217 3.8302 1.71551C3.55637 2.06001 3.42387 2.46635 3.42387 2.94335C3.42387 3.24369 3.49453 3.49986 3.65354 3.69419C3.81254 3.88853 4.00687 3.99453 4.25421 3.99453C4.46621 3.99453 4.64288 3.92386 4.78421 3.8002C4.92555 3.66769 4.99622 3.49986 4.99622 3.29669C4.99622 3.09352 4.92555 2.92569 4.80188 2.79319C4.66055 2.66068 4.50154 2.59885 4.31604 2.59885C4.21004 2.59885 4.13937 2.60768 4.09521 2.63418C4.08637 2.42218 4.16587 2.21018 4.32488 2.01584C4.48388 1.80384 4.68705 1.66251 4.93438 1.58301V1ZM2.78786 1C2.31969 1.12367 1.94868 1.36217 1.68368 1.71551C1.40985 2.06001 1.27734 2.46635 1.27734 2.94335C1.27734 3.24369 1.35684 3.49986 1.51585 3.69419C1.66601 3.88853 1.86035 3.99453 2.10769 3.99453C2.31969 3.99453 2.50519 3.92386 2.64652 3.8002C2.77903 3.66769 2.84969 3.49986 2.84969 3.29669C2.84969 3.09352 2.77903 2.92569 2.64652 2.79319C2.51402 2.66068 2.35502 2.59885 2.16952 2.59885C2.06352 2.59885 1.99285 2.60768 1.94868 2.63418C1.93985 2.42218 2.01935 2.21018 2.18719 2.01584C2.34619 1.80384 2.54052 1.66251 2.78786 1.58301V1ZM13.5001 2H7.00012V1H13.5001C14.3286 1 15.0001 1.67157 15.0001 2.5V14.5C15.0001 15.3284 14.3286 16 13.5001 16H3.50012C2.67169 16 2.00012 15.3284 2.00012 14.5V6H3.00012V14.5C3.00012 14.7761 3.22398 15 3.50012 15H13.5001C13.7763 15 14.0001 14.7761 14.0001 14.5V2.5C14.0001 2.22386 13.7763 2 13.5001 2ZM10.4462 12.2816C10.1812 12.6349 9.81016 12.8734 9.34198 12.9971V12.4141C9.58932 12.3346 9.79249 12.1932 9.95149 11.9812C10.1105 11.7869 10.19 11.5749 10.1812 11.3629C10.137 11.3894 10.0663 11.3982 9.96033 11.3982C9.77482 11.3982 9.61582 11.3364 9.47449 11.2039C9.35082 11.0714 9.28015 10.9035 9.28015 10.7004C9.28015 10.4972 9.35082 10.3294 9.49215 10.1969C9.63349 10.0732 9.81016 10.0025 10.0222 10.0025C10.2695 10.0025 10.4638 10.1085 10.6228 10.3029C10.7818 10.4972 10.8525 10.7534 10.8525 11.0537C10.8525 11.5307 10.72 11.9371 10.4462 12.2816ZM12.5927 12.2816C12.3277 12.6349 11.9567 12.8734 11.4885 12.9971V12.4141C11.7358 12.3346 11.9302 12.1932 12.0892 11.9812C12.257 11.7869 12.3365 11.5749 12.3277 11.3629C12.2835 11.3894 12.2128 11.3982 12.1068 11.3982C11.9213 11.3982 11.7623 11.3364 11.6298 11.2039C11.4973 11.0714 11.4267 10.9035 11.4267 10.7004C11.4267 10.4972 11.4973 10.3294 11.6298 10.1969C11.7712 10.0732 11.9567 10.0025 12.1687 10.0025C12.416 10.0025 12.6104 10.1085 12.7605 10.3029C12.9195 10.4972 12.999 10.7534 12.999 11.0537C12.999 11.5307 12.8665 11.9371 12.5927 12.2816Z" fill="#4E4272"/>
</g>
<defs>
<clipPath id="clip0_4326_54256">
<rect width="16" height="16" fill="white"/>
</clipPath>
</defs>
</svg>
