<svg width="16" height="16" viewBox="0 0 16 16" fill="none" xmlns="http://www.w3.org/2000/svg">
  <path fill-rule="evenodd" clip-rule="evenodd"
    d="M3.5 1C2.39543 1 1.5 1.89543 1.5 3V13C1.5 14.1046 2.39543 15 3.5 15H4V14H3.5C2.94772 14 2.5 13.5523 2.5 13V3C2.5 2.44772 2.94772 2 3.5 2H12.5C13.0523 2 13.5 2.44772 13.5 3V5H14.5V3C14.5 1.89543 13.6046 1 12.5 1H3.5Z"
    fill="#9069FF" />
  <path fill-rule="evenodd" clip-rule="evenodd"
    d="M14.8536 6.64645C15.0271 6.82001 15.0464 7.08944 14.9114 7.28431L14.8536 7.35355L13.8829 8.32298C14.6006 8.92434 15.2802 9.72843 15.9212 10.7306C16.0263 10.8948 16.0263 11.1052 15.9212 11.2694C14.3453 13.7334 12.5358 15 10.5 15C9.60249 15 8.74897 14.7538 7.94006 14.2674L6.85355 15.3536C6.65829 15.5488 6.34171 15.5488 6.14645 15.3536C5.97288 15.18 5.9536 14.9106 6.08859 14.7157L6.14645 14.6464L14.1464 6.64645C14.3417 6.45118 14.6583 6.45118 14.8536 6.64645ZM13.1736 9.03345L8.67447 13.5333C9.26556 13.8457 9.87394 14 10.5 14C11.9403 14 13.2871 13.1833 14.5451 11.5035L14.7242 11.2576L14.9021 11C14.3439 10.1704 13.7679 9.51632 13.1736 9.03345ZM10.5 7C11.0517 7 11.5867 7.09301 12.105 7.27765L11.2969 8.08569C11.0345 8.02846 10.7689 8 10.5 8C9.05966 8 7.71293 8.81669 6.45493 10.4965L6.27582 10.7424L6.09792 11C6.42609 11.4878 6.76044 11.9149 7.10106 12.2822L6.39405 12.989C5.93899 12.5024 5.50053 11.9288 5.07879 11.2694C4.97374 11.1052 4.97374 10.8948 5.07879 10.7306C6.65471 8.26664 8.4642 7 10.5 7Z"
    fill="#9069FF" />
</svg>