<svg width="32" height="20" viewBox="0 0 32 20" fill="none" xmlns="http://www.w3.org/2000/svg">
<rect width="32" height="20" rx="10" fill="#9069FF" fill-opacity="0.15"/>
<path fill-rule="evenodd" clip-rule="evenodd" d="M16.1642 4.58333C16.4269 4.32068 16.876 4.5067 16.876 4.87816V7.20804H17.876V4.87816C17.876 3.6158 16.3498 2.9836 15.4571 3.87623L9.87684 9.45653C8.98422 10.3492 9.6164 11.8754 10.8788 11.8754H13.2499V11.875H16.0007V11.8754H16.4591C17.2416 11.8754 17.876 11.241 17.876 10.4585V9.12458L21.1224 9.12458C21.4939 9.12458 21.6799 9.57368 21.4173 9.83634L15.8369 15.4166C15.5743 15.6793 15.1252 15.4933 15.1252 15.1218L15.1252 12.7919H14.1252L14.1252 15.1218C14.1252 16.3842 15.6514 17.0164 16.5441 16.1237L22.1244 10.5434C23.017 9.65082 22.3848 8.12458 21.1224 8.12458L18.7521 8.12458V8.12498H16.0013V8.12458H15.5421C14.7596 8.12458 14.1252 8.75896 14.1252 9.54152V10.8754H10.8788C10.5073 10.8754 10.3213 10.4263 10.5839 10.1636L16.1642 4.58333ZM16.876 9.12458V10.4585C16.876 10.6887 16.6893 10.8754 16.4591 10.8754H15.1252V9.54152C15.1252 9.31125 15.3119 9.12458 15.5421 9.12458L16.876 9.12458Z" fill="#9069FF"/>
</svg>
