<svg width="14" height="14" viewBox="0 0 14 14" fill="none" xmlns="http://www.w3.org/2000/svg">
<path d="M5.7106 10.0956L3.84709 13.3247M6.12536 1.45622L5.91565 1.81945C5.83844 1.95318 5.8862 2.12097 6.01398 2.20768C6.41537 2.48005 6.86455 2.97203 6.28757 3.97139C5.58854 5.18214 5.18495 4.94913 4.54836 5.11971C3.94401 5.28164 2.19221 5.75104 1.21882 7.1794C1.13186 7.30701 1.17571 7.47742 1.30945 7.55463L10.1118 12.6366C10.2455 12.7139 10.4161 12.6673 10.4832 12.5282C11.2335 10.971 10.7641 9.2192 10.6021 8.61486C10.4316 7.97826 10.028 7.74525 10.727 6.5345C11.304 5.53514 11.9546 5.67814 12.3912 5.88958C12.5302 5.95689 12.6992 5.91466 12.7764 5.78092L12.9863 5.41744C13.3723 4.74875 13.1433 3.89367 12.4746 3.50761L8.03515 0.944496C7.36646 0.558432 6.51142 0.78754 6.12536 1.45622Z" stroke="#757575" stroke-linecap="round" stroke-linejoin="round"/>
</svg>
