<svg width="16" height="16" viewBox="0 0 16 16" fill="none" xmlns="http://www.w3.org/2000/svg">
<g clip-path="url(#clip0_4326_54316)">
<path d="M9.95974 1.57518C10.4939 0.942003 11.4403 0.861771 12.0735 1.39598V1.39598C12.7067 1.93018 12.7869 2.87654 12.2527 3.50971L4.87128 12.2587L2.57834 10.3241L9.95974 1.57518Z" stroke="#4E4272"/>
<path d="M0.456339 14.3629C0.335831 14.7715 0.748807 15.134 1.13833 14.9615L4.54281 13.4542L1.48185 10.8858L0.456339 14.3629Z" fill="#4E4272"/>
<path d="M13.5 7C13.8607 7.62219 14.3778 8.13928 15 8.5C14.3778 8.86072 13.8607 9.37781 13.5 10C13.1393 9.37781 12.6222 8.86072 12 8.5C12.6222 8.13928 13.1393 7.62219 13.5 7Z" fill="#4E4272"/>
<path d="M13.5 13C13.8607 13.6222 14.3778 14.1393 15 14.5C14.3778 14.8607 13.8607 15.3778 13.5 16C13.1393 15.3778 12.6222 14.8607 12 14.5C12.6222 14.1393 13.1393 13.6222 13.5 13Z" fill="#4E4272"/>
<path d="M10.5 9.5C10.981 10.3296 11.6704 11.019 12.5 11.5C11.6704 11.981 10.981 12.6704 10.5 13.5C10.019 12.6704 9.32959 11.981 8.5 11.5C9.32959 11.019 10.019 10.3296 10.5 9.5Z" fill="#4E4272"/>
</g>
<defs>
<clipPath id="clip0_4326_54316">
<rect width="16" height="16" fill="white"/>
</clipPath>
</defs>
</svg>
