<svg width="16" height="16" viewBox="0 0 16 16" fill="none" xmlns="http://www.w3.org/2000/svg">
  <path fill-rule="evenodd" clip-rule="evenodd"
    d="M3.5 1C2.39543 1 1.5 1.89543 1.5 3V13C1.5 14.1046 2.39543 15 3.5 15H5V14H3.5C2.94772 14 2.5 13.5523 2.5 13V3C2.5 2.44772 2.94772 2 3.5 2H12.5C13.0523 2 13.5 2.44772 13.5 3V6H14.5V3C14.5 1.89543 13.6046 1 12.5 1H3.5Z"
    fill="#9069FF" />
  <path
    d="M12.1937 12.1937L14.5 14.5M13.1706 9.83529C13.1706 11.6773 11.6773 13.1706 9.83529 13.1706C7.99326 13.1706 6.5 11.6773 6.5 9.83529C6.5 7.99326 7.99326 6.5 9.83529 6.5C11.6773 6.5 13.1706 7.99326 13.1706 9.83529Z"
    stroke="#9069FF" stroke-linecap="round" stroke-linejoin="round" />
</svg>