<svg width="16" height="16" viewBox="0 0 16 16" fill="none" xmlns="http://www.w3.org/2000/svg">
<path fill-rule="evenodd" clip-rule="evenodd" d="M8.7353 0.628793C9.32108 0.0430071 10.2708 0.0430059 10.8566 0.628793L15.0992 4.87134C15.685 5.45718 15.6849 6.40704 15.099 6.9928L9.52944 12.561C9.24815 12.8422 8.86668 13.0002 8.46892 13.0002H5.01891C4.62072 13.0002 4.23887 12.8418 3.9575 12.5601L1.44244 10.0415C0.85736 9.45557 0.857693 8.5064 1.44319 7.9209L8.7353 0.628793ZM10.1495 1.3359C9.95425 1.14064 9.63767 1.14064 9.44241 1.3359L5.30515 5.47316L10.2543 10.4223L14.392 6.2856C14.5873 6.09035 14.5873 5.77373 14.3921 5.57845L10.1495 1.3359ZM2.1503 8.62801L4.59804 6.18026L9.54708 11.1293L8.82243 11.8538C8.72866 11.9475 8.60151 12.0002 8.46892 12.0002H5.01891C4.88618 12.0002 4.75889 11.9474 4.6651 11.8535L2.15005 9.33487C1.95502 9.13957 1.95513 8.82318 2.1503 8.62801ZM1.5 13.9997C1.22386 13.9997 1 14.2236 1 14.4997C1 14.7759 1.22386 14.9997 1.5 14.9997H14.5C14.7761 14.9997 15 14.7759 15 14.4997C15 14.2236 14.7761 13.9997 14.5 13.9997H1.5Z" fill="#757575"/>
</svg>
