<svg width="16" height="16" viewBox="0 0 16 16" fill="none" xmlns="http://www.w3.org/2000/svg">
    <path fill-rule="evenodd" clip-rule="evenodd" d="M15 1.5C15 1.22386 14.8041 1 14.5625 1H1.4375C1.19588 1 1 1.22386 1 1.5C1 1.77614 1.19588 2 1.4375 2H14.5625C14.8041 2 15 1.77614 15 1.5ZM1.14645 10.8536C0.951184 10.6583 0.951184 10.3417 1.14645 10.1464L3.79289 7.5L1.14645 4.85355C0.951184 4.65829 0.951185 4.34171 1.14645 4.14645C1.34171 3.95118 1.65829 3.95118 1.85355 4.14645L4.85355 7.14645C4.94732 7.24022 5 7.36739 5 7.5C5 7.63261 4.94732 7.75979 4.85355 7.85355L1.85355 10.8536C1.65829 11.0488 1.34171 11.0488 1.14645 10.8536ZM6 5.5C6 4.67157 6.67157 4 7.5 4H13.5C14.3284 4 15 4.67157 15 5.5V9.5C15 10.3284 14.3284 11 13.5 11H7.5C6.67157 11 6 10.3284 6 9.5V5.5ZM7.5 5C7.22386 5 7 5.22386 7 5.5V9.5C7 9.77614 7.22386 10 7.5 10H13.5C13.7761 10 14 9.77614 14 9.5V5.5C14 5.22386 13.7761 5 13.5 5H7.5ZM8.5 7C8.22386 7 8 7.22386 8 7.5C8 7.77614 8.22386 8 8.5 8H12.5C12.7761 8 13 7.77614 13 7.5C13 7.22386 12.7761 7 12.5 7H8.5ZM14.5625 13C14.8041 13 15 13.2239 15 13.5C15 13.7761 14.8041 14 14.5625 14H1.4375C1.19588 14 1 13.7761 1 13.5C1 13.2239 1.19588 13 1.4375 13H14.5625Z" fill="#757575"/>
</svg>
