<svg width="24" height="24" viewBox="0 0 24 24" fill="none" xmlns="http://www.w3.org/2000/svg">
<path fill-rule="evenodd" clip-rule="evenodd" d="M14.6667 3.66667C13.5605 3.02539 12.6413 2.10612 12 1C11.3587 2.10612 10.4395 3.02539 9.33333 3.66667C10.4395 4.30794 11.3587 5.22721 12 6.33333C12.6413 5.22721 13.5605 4.30794 14.6667 3.66667ZM3 13.1667C3 13.0073 3.00503 12.8491 3.01495 12.692H5.00813C5.00273 12.7941 5 12.8967 5 13C5 16.4978 8.13401 19.3333 12 19.3333C15.866 19.3333 19 16.4978 19 13C19 12.8967 18.9973 12.7941 18.9919 12.692H20.9851C20.995 12.8491 21 13.0073 21 13.1667C21 17.677 16.9706 21.3333 12 21.3333C7.02944 21.3333 3 17.677 3 13.1667ZM7.33333 4.33333C7.81429 5.16292 8.50374 5.85238 9.33333 6.33333C8.50374 6.81429 7.81429 7.50374 7.33333 8.33333C6.85238 7.50374 6.16292 6.81429 5.33333 6.33333C6.16292 5.85238 6.85238 5.16292 7.33333 4.33333ZM18.6667 6.33333C17.8371 5.85238 17.1476 5.16292 16.6667 4.33333C16.1857 5.16292 15.4963 5.85238 14.6667 6.33333C15.4963 6.81429 16.1857 7.50374 16.6667 8.33333C17.1476 7.50374 17.8371 6.81429 18.6667 6.33333ZM16.3333 12C16.3333 13.1046 15.7364 14 15 14C14.2636 14 13.6667 13.1046 13.6667 12C13.6667 10.8954 14.2636 10 15 10C15.7364 10 16.3333 10.8954 16.3333 12ZM9 14C9.73638 14 10.3333 13.1046 10.3333 12C10.3333 10.8954 9.73638 10 9 10C8.26362 10 7.66667 10.8954 7.66667 12C7.66667 13.1046 8.26362 14 9 14Z" fill="url(#paint0_linear_4322_328167)"/>
<defs>
<linearGradient id="paint0_linear_4322_328167" x1="7.3125" y1="3.54167" x2="18.1304" y2="7.18986" gradientUnits="userSpaceOnUse">
<stop stop-color="#FF5959"/>
<stop offset="1" stop-color="#9069FF"/>
</linearGradient>
</defs>
</svg>
