<svg width="16" height="16" viewBox="0 0 16 16" fill="none" xmlns="http://www.w3.org/2000/svg">
<g clip-path="url(#clip0_319_246768)">
<path d="M11.4944 6.96308L11.5 14.496M1.50738 7.19853L1.9876 13.1327C2.0669 13.908 2.76566 14.5 3.60137 14.5C6.26326 14.5 8.83811 14.5 11.5 14.5L11.4956 6.96307C11.4956 6.66016 11.4427 6.66161 11.2948 6.5C10.0529 5.1431 9.66274 3.42208 9.07904 1.82607C8.86085 1.33592 8.39269 0.82569 7.88086 1.0583C6.91613 1.49674 6.35638 2.25983 6.46681 3.4465C6.54266 4.26168 6.61287 5.01614 6.68714 5.50429C6.7211 5.72754 6.50753 5.95485 6.26724 5.92829L3.01517 5.56886C2.91105 5.56596 2.80621 5.57016 2.7055 5.59496C1.94662 5.78181 1.43146 6.45635 1.50738 7.19853Z" stroke="#757575" stroke-linejoin="round"/>
<path d="M11.1265 6.5L14.2 6.5C14.3657 6.5 14.5 6.63431 14.5 6.8L14.5 14.2C14.5 14.3657 14.3657 14.5 14.2 14.5L11.1265 14.5" stroke="#757575" stroke-linejoin="round"/>
</g>
<defs>
<clipPath id="clip0_319_246768">
<rect width="16" height="16" fill="white"/>
</clipPath>
</defs>
</svg>
