<svg width="21" height="7" viewBox="0 0 21 7" fill="none" xmlns="http://www.w3.org/2000/svg">
    <path fill-rule="evenodd" clip-rule="evenodd" d="M10.998 0.375977C11.7494 1.67189 12.8264 2.74891 14.1223 3.50021C12.8264 4.25152 11.7494 5.32853 10.998 6.62445C10.2467 5.32853 9.16973 4.25152 7.87381 3.50021C9.16973 2.74891 10.2467 1.67189 10.998 0.375977ZM3.18623 1.3125C3.71244 2.22015 4.46677 2.97448 5.37442 3.50069C4.46677 4.02689 3.71244 4.78123 3.18623 5.68887C2.66002 4.78123 1.90569 4.02689 0.998047 3.50069C1.90569 2.97448 2.66002 2.22015 3.18623 1.3125ZM20.998 3.50069C20.0903 2.97448 19.336 2.22015 18.8098 1.3125C18.2836 2.22015 17.5292 2.97448 16.6216 3.50069C17.5292 4.02689 18.2836 4.78123 18.8098 5.68887C19.336 4.78123 20.0903 4.02689 20.998 3.50069Z" fill="url(#paint0_linear_3849_351354)"/>
    <defs>
        <linearGradient id="paint0_linear_3849_351354" x1="3.98527" y1="-1.91412" x2="9.73769" y2="4.66642" gradientUnits="userSpaceOnUse">
            <stop stop-color="#FF5959"/>
            <stop offset="1" stop-color="#9069FF"/>
        </linearGradient>
    </defs>
</svg>
