<svg width="16" height="16" viewBox="0 0 16 16" fill="none" xmlns="http://www.w3.org/2000/svg">
<g clip-path="url(#clip0_4326_63874)">
<path d="M13.8616 12.6155C13.9587 12.357 14.2471 12.2263 14.5055 12.3234C14.764 12.4206 14.8948 12.7089 14.7976 12.9674L13.8616 12.6155ZM9.666 11.8532C9.666 13.0498 10.6361 14.0199 11.8327 14.0199V15.0199C10.0838 15.0199 8.666 13.6021 8.666 11.8532H9.666ZM11.8327 9.68652C10.6361 9.68652 9.666 10.6566 9.666 11.8532H8.666C8.666 10.1043 10.0838 8.68652 11.8327 8.68652V9.68652ZM13.5481 10.5294C13.151 10.0158 12.5304 9.68652 11.8327 9.68652V8.68652C12.8531 8.68652 13.7609 9.16972 14.3392 9.91774L13.5481 10.5294ZM11.8327 14.0199C12.7602 14.0199 13.5528 13.4368 13.8616 12.6155L14.7976 12.9674C14.3471 14.1658 13.1902 15.0199 11.8327 15.0199V14.0199Z" fill="#4E4272"/>
<path d="M15.0502 11.0553C15.0645 11.181 14.9598 11.2882 14.8337 11.2769L13.0588 11.118C12.89 11.1029 12.8154 10.8978 12.935 10.7777L14.5126 9.1934C14.6309 9.07456 14.8342 9.1454 14.853 9.31205L15.0502 11.0553Z" fill="#4E4272"/>
<path d="M9.95974 1.57489C10.4939 0.941713 11.4403 0.861481 12.0735 1.39569V1.39569C12.7067 1.92989 12.7869 2.87625 12.2527 3.50942L4.87128 12.2584L2.57834 10.3238L9.95974 1.57489Z" stroke="#4E4272"/>
<path d="M0.456339 14.3626C0.335831 14.7712 0.748807 15.1337 1.13833 14.9612L4.54281 13.4539L1.48185 10.8855L0.456339 14.3626Z" fill="#4E4272"/>
</g>
<defs>
<clipPath id="clip0_4326_63874">
<rect width="16" height="16" fill="white"/>
</clipPath>
</defs>
</svg>
