<svg width="32" height="32" viewBox="0 0 32 32" fill="none" xmlns="http://www.w3.org/2000/svg">
<path fill-rule="evenodd" clip-rule="evenodd" d="M16.4711 20.6768L18.676 15.9782L20.5872 20.051L24.9158 10.8266C25.0142 10.617 24.9234 10.3676 24.713 10.2696C24.6573 10.2436 24.5965 10.2302 24.5349 10.2302H20.2128L18.0951 14.7405L18.0957 14.7417L15.8909 19.4403L15.8899 19.4379L13.23 25.1036C12.7648 26.2286 11.4757 26.7636 10.3506 26.2984C9.83337 26.0845 9.41776 25.6824 9.18664 25.1747L9.15576 25.1036L1.98806 9.82847C1.39791 8.57082 1.94275 7.07461 3.20499 6.4866C3.53951 6.33077 3.90428 6.25 4.27355 6.25H11.9704C13.2766 6.25 14.4646 7.00332 15.0178 8.18223L15.3093 8.80349L13.1025 13.4977L11.7958 10.7132C11.6575 10.4185 11.3605 10.2302 11.034 10.2302H7.24698C7.01475 10.2302 6.82649 10.4177 6.82649 10.6491C6.82649 10.7105 6.84 10.771 6.86606 10.8266L11.1947 20.051L13.6861 14.7415L13.6823 14.7334L15.8892 10.0392L15.8908 10.0428L16.7641 8.18216C17.3173 7.00328 18.5053 6.25 19.8114 6.25H27.5083C28.9017 6.25 30.0313 7.37546 30.0313 8.76379C30.0313 9.13173 29.9502 9.49517 29.7938 9.82847L22.6261 25.1036C22.1605 26.2296 20.8703 26.7651 19.7442 26.2995C19.2269 26.0856 18.8112 25.6836 18.5797 25.176L18.5482 25.1036L16.4711 20.6768Z" fill="url(#paint0_linear_120_8048)"/>
<path fill-rule="evenodd" clip-rule="evenodd" d="M19.8114 6.25L23.6841 6.25C22.6612 6.25 21.7804 6.85656 21.3844 7.72839L21.3556 7.79427L20.2127 10.2302L18.0951 14.7405L18.0957 14.7417L17.8536 15.2575H13.4438L13.6861 14.7415L13.6823 14.7334L15.8891 10.0392L15.8908 10.0428L16.764 8.18216C17.3172 7.00328 18.5053 6.25 19.8114 6.25Z" fill="url(#paint1_linear_120_8048)"/>
<path fill-rule="evenodd" clip-rule="evenodd" d="M27.2237 6.25C28.7149 6.25 29.9237 7.45883 29.9237 8.95C29.9237 9.34646 29.8364 9.73805 29.668 10.097L28.2784 13.058H23.8689L24.895 10.8713C25.0005 10.6463 24.9037 10.3784 24.6788 10.2728C24.6189 10.2447 24.5537 10.2302 24.4876 10.2302H20.2129L21.3558 7.79427C21.7273 6.90939 22.5922 6.28125 23.6078 6.25113L23.7014 6.25L27.2237 6.25Z" fill="url(#paint2_linear_120_8048)" style="mix-blend-mode:multiply"/>
<defs>
<linearGradient id="paint0_linear_120_8048" x1="29.9775" y1="26.3906" x2="29.9775" y2="6.25" gradientUnits="userSpaceOnUse">
<stop offset="0.000976562" stop-color="#FF5100"/>
<stop offset="1" stop-color="#FF1522"/>
</linearGradient>
<linearGradient id="paint1_linear_120_8048" x1="22.5007" y1="13.4542" x2="22.5007" y2="6.52854" gradientUnits="userSpaceOnUse">
<stop stop-color="#FD7821" stop-opacity="0.01"/>
<stop offset="0.489347" stop-color="#FF5100"/>
<stop offset="1" stop-color="#FF9B27"/>
</linearGradient>
<linearGradient id="paint2_linear_120_8048" x1="29.1694" y1="10.4389" x2="26.7334" y2="4.73278" gradientUnits="userSpaceOnUse">
<stop stop-color="#FD7821" stop-opacity="0.01"/>
<stop offset="1" stop-color="#881000" stop-opacity="0.924541"/>
</linearGradient>
</defs>
</svg>
