<svg width="14" height="16" viewBox="0 0 14 16" fill="none" xmlns="http://www.w3.org/2000/svg">
<path fill-rule="evenodd" clip-rule="evenodd" d="M1 1.5C1 1.22386 1.22386 1 1.5 1H7.29289L11 4.70711V10H12V4.5V4.29289L11.8536 4.14645L7.85355 0.146447L7.70711 0H7.5H1.5C0.671573 0 0 0.671573 0 1.5V14.5C0 15.3284 0.671572 16 1.5 16H8V15H1.5C1.22386 15 1 14.7761 1 14.5V1.5ZM3.5 5C3.22386 5 3 5.22386 3 5.5C3 5.77614 3.22386 6 3.5 6H8.5C8.77614 6 9 5.77614 9 5.5C9 5.22386 8.77614 5 8.5 5H3.5ZM3 8.5C3 8.22386 3.22386 8 3.5 8H8.5C8.77614 8 9 8.22386 9 8.5C9 8.77614 8.77614 9 8.5 9H3.5C3.22386 9 3 8.77614 3 8.5ZM3.5 11C3.22386 11 3 11.2239 3 11.5C3 11.7761 3.22386 12 3.5 12H6.5C6.77614 12 7 11.7761 7 11.5C7 11.2239 6.77614 11 6.5 11H3.5ZM11.6711 11.4835L11.4453 10.8906L11.2196 11.4835C10.915 12.2833 10.2833 12.915 9.4835 13.2196L8.89062 13.4453L9.4835 13.6711C10.2833 13.9756 10.915 14.6073 11.2196 15.4071L11.4453 16L11.6711 15.4071C11.9756 14.6073 12.6073 13.9756 13.4071 13.6711L14 13.4453L13.4071 13.2196C12.6073 12.915 11.9756 12.2833 11.6711 11.4835Z" fill="#4E4272"/>
</svg>
