<svg width="16" height="16" viewBox="0 0 16 16" fill="none" xmlns="http://www.w3.org/2000/svg">
<g clip-path="url(#clip0_4326_59789)">
<path d="M14.5 11.6333V3.85041C14.5 2.55231 13.4255 1.5 12.1 1.5" stroke="#4E4272" stroke-linecap="square" stroke-linejoin="round"/>
<path d="M1.5 11.4998V3.85041C1.5 2.55231 2.57452 1.5 3.9 1.5" stroke="#4E4272" stroke-linecap="square" stroke-linejoin="round"/>
<path fill-rule="evenodd" clip-rule="evenodd" d="M6.00562 11.9972C6.00562 13.1017 5.11019 13.9972 4.00562 13.9972C2.90105 13.9972 2.00562 13.1017 2.00562 11.9972C2.00562 10.8926 2.90105 9.99716 4.00562 9.99716C5.11019 9.99716 6.00562 10.8926 6.00562 11.9972ZM6.9989 12.1995C6.89484 13.762 5.59447 14.9972 4.00562 14.9972C2.34876 14.9972 1.00562 13.654 1.00562 11.9972C1.00562 10.3403 2.34876 8.99716 4.00562 8.99716C5.3776 8.99716 6.53448 9.91815 6.89174 11.1756C7.19744 11.0779 7.57404 11.0002 7.99995 11.0002C8.44945 11.0002 8.81945 11.0867 9.10785 11.1972C9.45795 9.92869 10.6202 8.99716 12 8.99716C13.6569 8.99716 15 10.3403 15 11.9972C15 13.654 13.6569 14.9972 12 14.9972C10.431 14.9972 9.1434 13.7928 9.01119 12.2581C8.97976 12.2389 8.94315 12.2183 8.90134 12.1974C8.71249 12.103 8.41357 12.0002 7.99995 12.0002C7.59826 12.0002 7.25187 12.0971 6.9989 12.1995ZM12 13.9972C13.1046 13.9972 14 13.1017 14 11.9972C14 10.8926 13.1046 9.99716 12 9.99716C10.8954 9.99716 10 10.8926 10 11.9972C10 13.1017 10.8954 13.9972 12 13.9972Z" fill="#4E4272"/>
</g>
<defs>
<clipPath id="clip0_4326_59789">
<rect width="16" height="16" fill="white"/>
</clipPath>
</defs>
</svg>
