<svg width="16" height="16" viewBox="0 0 16 16" fill="none" xmlns="http://www.w3.org/2000/svg">
<path fill-rule="evenodd" clip-rule="evenodd" d="M1.39132 7.13524L1.86384 13.5605C1.94188 14.3792 2.62949 15.0044 3.45188 15.0044L11.0055 15.0044L11.0055 6.11573C11.0055 5.84546 10.9683 5.80464 10.869 5.69555C10.8508 5.67552 10.8305 5.6532 10.8079 5.62673C9.80317 4.44871 9.51015 3.5318 9.11852 2.30636C9.03379 2.04122 8.94444 1.76164 8.84227 1.46185C8.62756 0.944239 8.16686 0.405435 7.6632 0.651073C6.71384 1.11407 6.16302 1.9199 6.27168 3.17304L6.27168 3.17307C6.34633 4.03389 6.41542 4.8306 6.4885 5.3461C6.52193 5.58185 6.31176 5.82189 6.0753 5.79384L2.87507 5.41428C2.77262 5.41121 2.66945 5.41566 2.57035 5.44184C1.82357 5.63915 1.31661 6.35149 1.39132 7.13524ZM14.7 5.99986L12 5.99986L12 14.9999H14.7C14.8657 14.9999 15 14.8547 15 14.6757L15 6.324C15 6.14498 14.8657 5.99986 14.7 5.99986Z" fill="#9069FF"/>
</svg>
