<svg width="16" height="16" viewBox="0 0 16 16" fill="none" xmlns="http://www.w3.org/2000/svg">
<path fill-rule="evenodd" clip-rule="evenodd" d="M13.357 13.0003L12.1563 14.1369C11.9557 14.3267 11.947 14.6432 12.1369 14.8437C12.3267 15.0443 12.6432 15.053 12.8437 14.8631L14.7595 13.0497C15.0798 12.7465 15.0788 12.2361 14.7573 11.9341L12.8423 10.1355C12.641 9.9465 12.3246 9.95642 12.1355 10.1577C11.9465 10.359 11.9564 10.6754 12.1577 10.8645L13.367 12.0003L9.49978 12.002C9.22364 12.0021 8.99988 12.226 9 12.5022C9.00012 12.7783 9.22407 13.0021 9.50022 13.002L13.357 13.0003Z" fill="#4E4272"/>
<path fill-rule="evenodd" clip-rule="evenodd" d="M2.64211 11.9997L3.84287 10.8631C4.04341 10.6733 4.0521 10.3568 3.86227 10.1563C3.67244 9.95573 3.35597 9.94705 3.15543 10.1369L1.23968 11.9503C0.919311 12.2535 0.920307 12.7639 1.24185 13.0659L3.15684 14.8645C3.35813 15.0535 3.67456 15.0436 3.8636 14.8423C4.05265 14.641 4.04273 14.3246 3.84145 14.1355L2.63211 12.9997L6.49936 12.998C6.77551 12.9979 6.99927 12.774 6.99915 12.4978C6.99903 12.2217 6.77507 11.9979 6.49893 11.998L2.64211 11.9997Z" fill="#4E4272"/>
<path fill-rule="evenodd" clip-rule="evenodd" d="M14.5625 7C14.8041 7 15 7.22386 15 7.5C15 7.77614 14.8041 8 14.5625 8H1.4375C1.19588 8 1 7.77614 1 7.5C1 7.22386 1.19588 7 1.4375 7H14.5625Z" fill="#4E4272"/>
<path fill-rule="evenodd" clip-rule="evenodd" d="M14.5625 4C14.8041 4 15 4.22386 15 4.5C15 4.77614 14.8041 5 14.5625 5H1.4375C1.19588 5 1 4.77614 1 4.5C1 4.22386 1.19588 4 1.4375 4H14.5625Z" fill="#4E4272"/>
<path fill-rule="evenodd" clip-rule="evenodd" d="M14.5625 1C14.8041 1 15 1.22386 15 1.5C15 1.77614 14.8041 2 14.5625 2H1.4375C1.19588 2 1 1.77614 1 1.5C1 1.22386 1.19588 1 1.4375 1H14.5625Z" fill="#4E4272"/>
</svg>
