<svg width="13" height="15" viewBox="0 0 13 15" fill="none" xmlns="http://www.w3.org/2000/svg">
<path d="M6.43108 10.4182L6.42847 14.1464M2.47731 2.72541L2.47695 3.14483C2.47681 3.29925 2.60196 3.42079 2.75597 3.43212C3.23973 3.46773 3.87455 3.66976 3.87353 4.82372C3.87231 6.22178 3.40629 6.22138 2.93986 6.68699C2.49706 7.12901 1.21352 8.4103 1.08321 10.1339C1.07157 10.2879 1.19464 10.4136 1.34907 10.4138L11.5131 10.4227C11.6675 10.4228 11.7921 10.2973 11.7807 10.1433C11.6535 8.41946 10.3722 7.13592 9.93016 6.69312C9.46455 6.22669 8.99853 6.22628 8.99975 4.82822C9.00077 3.67426 9.63593 3.47334 10.1198 3.43859C10.2738 3.42752 10.3991 3.30656 10.3993 3.15213L10.3997 2.73241C10.4003 1.96028 9.77495 1.33375 9.00282 1.33307L3.8766 1.32857C3.10447 1.3279 2.47799 1.95328 2.47731 2.72541Z" stroke="#757575" stroke-linecap="round" stroke-linejoin="round"/>
</svg>
