<svg width="16" height="16" viewBox="0 0 16 16" fill="none" xmlns="http://www.w3.org/2000/svg">
<g clip-path="url(#clip0_1168_245319)">
<path d="M14.5 11.6333V3.85041C14.5 2.55231 13.4255 1.5 12.1 1.5" stroke="#4E4272" stroke-linecap="square" stroke-linejoin="round"/>
<path d="M1.5 11.4998V3.85041C1.5 2.55231 2.57452 1.5 3.9 1.5" stroke="#4E4272" stroke-linecap="square" stroke-linejoin="round"/>
<path fill-rule="evenodd" clip-rule="evenodd" d="M6.00562 11.9971C6.00562 13.1016 5.11019 13.9971 4.00562 13.9971C2.90105 13.9971 2.00562 13.1016 2.00562 11.9971C2.00562 10.8925 2.90105 9.99707 4.00562 9.99707C5.11019 9.99707 6.00562 10.8925 6.00562 11.9971ZM6.9989 12.1994C6.89484 13.7619 5.59447 14.9971 4.00562 14.9971C2.34876 14.9971 1.00562 13.6539 1.00562 11.9971C1.00562 10.3402 2.34876 8.99707 4.00562 8.99707C5.3776 8.99707 6.53448 9.91806 6.89174 11.1755C7.19744 11.0778 7.57404 11.0001 7.99995 11.0001C8.44945 11.0001 8.81945 11.0866 9.10785 11.1971C9.45795 9.92859 10.6202 8.99707 12 8.99707C13.6569 8.99707 15 10.3402 15 11.9971C15 13.6539 13.6569 14.9971 12 14.9971C10.431 14.9971 9.1434 13.7927 9.01119 12.258C8.97976 12.2388 8.94315 12.2182 8.90134 12.1973C8.71249 12.1029 8.41357 12.0001 7.99995 12.0001C7.59826 12.0001 7.25187 12.097 6.9989 12.1994ZM12 13.9971C13.1046 13.9971 14 13.1016 14 11.9971C14 10.8925 13.1046 9.99707 12 9.99707C10.8954 9.99707 10 10.8925 10 11.9971C10 13.1016 10.8954 13.9971 12 13.9971Z" fill="#4E4272"/>
</g>
<defs>
<clipPath id="clip0_1168_245319">
<rect width="16" height="16" fill="white"/>
</clipPath>
</defs>
</svg>
