<svg width="16" height="16" viewBox="0 0 16 16" fill="none" xmlns="http://www.w3.org/2000/svg">
<g clip-path="url(#clip0_1178_245353)">
<path d="M13.8617 12.6155C13.9589 12.357 14.2472 12.2263 14.5057 12.3234C14.7641 12.4206 14.8949 12.7089 14.7977 12.9674L13.8617 12.6155ZM9.66612 11.8532C9.66612 13.0498 10.6362 14.0199 11.8328 14.0199V15.0199C10.0839 15.0199 8.66612 13.6021 8.66612 11.8532H9.66612ZM11.8328 9.68652C10.6362 9.68652 9.66612 10.6566 9.66612 11.8532H8.66612C8.66612 10.1043 10.0839 8.68652 11.8328 8.68652V9.68652ZM13.5482 10.5294C13.1511 10.0158 12.5305 9.68652 11.8328 9.68652V8.68652C12.8532 8.68652 13.761 9.16972 14.3393 9.91774L13.5482 10.5294ZM11.8328 14.0199C12.7603 14.0199 13.5529 13.4368 13.8617 12.6155L14.7977 12.9674C14.3472 14.1658 13.1904 15.0199 11.8328 15.0199V14.0199Z" fill="#4E4272"/>
<path d="M15.0502 11.0554C15.0645 11.1812 14.9598 11.2884 14.8337 11.2771L13.0588 11.1181C12.89 11.103 12.8154 10.8979 12.935 10.7778L14.5126 9.19354C14.6309 9.0747 14.8342 9.14553 14.853 9.31218L15.0502 11.0554Z" fill="#4E4272"/>
<path d="M9.95974 1.57518C10.4939 0.942003 11.4403 0.861771 12.0735 1.39598V1.39598C12.7067 1.93018 12.7869 2.87654 12.2527 3.50971L4.87128 12.2587L2.57834 10.3241L9.95974 1.57518Z" stroke="#4E4272"/>
<path d="M0.456339 14.3629C0.335831 14.7715 0.748807 15.134 1.13833 14.9615L4.54281 13.4542L1.48185 10.8858L0.456339 14.3629Z" fill="#4E4272"/>
</g>
<defs>
<clipPath id="clip0_1178_245353">
<rect width="16" height="16" fill="white"/>
</clipPath>
</defs>
</svg>
