<svg width="16" height="16" viewBox="0 0 16 16" fill="none" xmlns="http://www.w3.org/2000/svg">
<path fill-rule="evenodd" clip-rule="evenodd" d="M10.6421 11.9997L11.8429 10.8631C12.0434 10.6733 12.0521 10.3568 11.8623 10.1563C11.6724 9.95573 11.356 9.94705 11.1554 10.1369L9.23968 11.9503C8.91931 12.2535 8.92031 12.7639 9.24185 13.0659L11.1568 14.8645C11.3581 15.0535 11.6746 15.0436 11.8636 14.8423C12.0527 14.641 12.0427 14.3246 11.8414 14.1355L10.6321 12.9997L14.4994 12.998C14.7755 12.9979 14.9993 12.774 14.9991 12.4978C14.999 12.2217 14.7751 11.9979 14.4989 11.998L10.6421 11.9997Z" fill="#4E4272"/>
<path fill-rule="evenodd" clip-rule="evenodd" d="M5.35704 13.0003L4.15628 14.1369C3.95573 14.3267 3.94705 14.6432 4.13688 14.8437C4.32671 15.0443 4.64317 15.053 4.84372 14.8631L6.75947 13.0497C7.07983 12.7465 7.07884 12.2361 6.75729 11.9341L4.8423 10.1355C4.64102 9.9465 4.32459 9.95642 4.13554 10.1577C3.94649 10.359 3.95641 10.6754 4.1577 10.8645L5.36704 12.0003L1.49978 12.002C1.22364 12.0021 0.99988 12.226 1 12.5022C1.00012 12.7783 1.22407 13.0021 1.50022 13.002L5.35704 13.0003Z" fill="#4E4272"/>
<path fill-rule="evenodd" clip-rule="evenodd" d="M14.5625 7C14.8041 7 15 7.22386 15 7.5C15 7.77614 14.8041 8 14.5625 8H1.4375C1.19588 8 1 7.77614 1 7.5C1 7.22386 1.19588 7 1.4375 7H14.5625Z" fill="#4E4272"/>
<path fill-rule="evenodd" clip-rule="evenodd" d="M14.5625 4C14.8041 4 15 4.22386 15 4.5C15 4.77614 14.8041 5 14.5625 5H1.4375C1.19588 5 1 4.77614 1 4.5C1 4.22386 1.19588 4 1.4375 4H14.5625Z" fill="#4E4272"/>
<path fill-rule="evenodd" clip-rule="evenodd" d="M14.5625 1C14.8041 1 15 1.22386 15 1.5C15 1.77614 14.8041 2 14.5625 2H1.4375C1.19588 2 1 1.77614 1 1.5C1 1.22386 1.19588 1 1.4375 1H14.5625Z" fill="#4E4272"/>
</svg>
