<svg width="16" height="16" viewBox="0 0 16 16" fill="none" xmlns="http://www.w3.org/2000/svg">
<path fill-rule="evenodd" clip-rule="evenodd" d="M7 1.00391H3.49939C3.22325 1.00391 2.99939 1.22776 2.99939 1.50391V13.5039C2.99939 13.78 3.22325 14.0039 3.49939 14.0039H7V1.00391ZM8 14.0039H13.5006C13.7768 14.0039 14.0006 13.78 14.0006 13.5039V1.50391C14.0006 1.22776 13.7768 1.00391 13.5006 1.00391H8V14.0039ZM7.5628 0.00390625H13.5006C14.329 0.00390625 15.0006 0.675479 15.0006 1.50391V13.5039C15.0006 14.3323 14.329 15.0039 13.5006 15.0039H3.49939C2.67096 15.0039 1.99939 14.3323 1.99939 13.5039V1.50391C1.99939 0.67548 2.67096 0.00390625 3.49939 0.00390625H7.4372C7.45777 0.00132822 7.47873 0 7.5 0C7.52127 0 7.54223 0.00132822 7.5628 0.00390625ZM12.5 3C12.7761 3 13 3.22386 13 3.5C13 3.77614 12.7761 4 12.5 4H9.5C9.22386 4 9 3.77614 9 3.5C9 3.22386 9.22386 3 9.5 3L12.5 3ZM6 3.5C6 3.22386 5.77614 3 5.5 3L4.5 3C4.22386 3 4 3.22386 4 3.5C4 3.77614 4.22386 4 4.5 4H5.5C5.77614 4 6 3.77614 6 3.5ZM11.5 5C11.7761 5 12 5.22386 12 5.5C12 5.77614 11.7761 6 11.5 6H9.5C9.22386 6 9 5.77614 9 5.5C9 5.22386 9.22386 5 9.5 5H11.5ZM12 9.5C12 9.22386 11.7761 9 11.5 9H9.5C9.22386 9 9 9.22386 9 9.5C9 9.77614 9.22386 10 9.5 10H11.5C11.7761 10 12 9.77614 12 9.5ZM5.5 9C5.77614 9 6 9.22386 6 9.5C6 9.77614 5.77614 10 5.5 10H4.5C4.22386 10 4 9.77614 4 9.5C4 9.22386 4.22386 9 4.5 9H5.5ZM13 11.5C13 11.2239 12.7761 11 12.5 11H9.5C9.22386 11 9 11.2239 9 11.5C9 11.7761 9.22386 12 9.5 12H12.5C12.7761 12 13 11.7761 13 11.5Z" fill="#4E4272"/>
</svg>
