<svg width="16" height="16" viewBox="0 0 16 16" fill="none" xmlns="http://www.w3.org/2000/svg">
<path fill-rule="evenodd" clip-rule="evenodd" d="M15 1.5C15 1.22386 14.8041 1 14.5625 1H1.4375C1.19588 1 1 1.22386 1 1.5C1 1.77614 1.19588 2 1.4375 2H14.5625C14.8041 2 15 1.77614 15 1.5ZM14.5625 4C14.8041 4 15 4.22386 15 4.5C15 4.77614 14.8041 5 14.5625 5H1.4375C1.19588 5 1 4.77614 1 4.5C1 4.22386 1.19588 4 1.4375 4H14.5625ZM1.14645 13.8536C0.951185 13.6583 0.951185 13.3417 1.14645 13.1464L3.79289 10.5L1.14645 7.85355C0.951185 7.65829 0.951185 7.34171 1.14645 7.14645C1.34171 6.95118 1.65829 6.95118 1.85355 7.14645L4.85355 10.1464C4.94732 10.2402 5 10.3674 5 10.5C5 10.6326 4.94732 10.7598 4.85355 10.8536L1.85355 13.8536C1.65829 14.0488 1.34171 14.0488 1.14645 13.8536ZM6 8.5C6 7.67157 6.67157 7 7.5 7H13.5C14.3284 7 15 7.67157 15 8.5V12.5C15 13.3284 14.3284 14 13.5 14H7.5C6.67157 14 6 13.3284 6 12.5V8.5ZM7.5 8C7.22386 8 7 8.22386 7 8.5V12.5C7 12.7761 7.22386 13 7.5 13H13.5C13.7761 13 14 12.7761 14 12.5V8.5C14 8.22386 13.7761 8 13.5 8H7.5ZM8.5 10C8.22386 10 8 10.2239 8 10.5C8 10.7761 8.22386 11 8.5 11H12.5C12.7761 11 13 10.7761 13 10.5C13 10.2239 12.7761 10 12.5 10H8.5Z" fill="#757575"/>
</svg>
