<svg width="16" height="16" viewBox="0 0 16 16" fill="none" xmlns="http://www.w3.org/2000/svg">
<path fill-rule="evenodd" clip-rule="evenodd" d="M1.14645 7.85355C0.951184 7.65829 0.951184 7.34171 1.14645 7.14645L3.79289 4.5L1.14645 1.85355C0.951184 1.65829 0.951185 1.34171 1.14645 1.14645C1.34171 0.951184 1.65829 0.951184 1.85355 1.14645L4.85355 4.14645C4.94732 4.24022 5 4.36739 5 4.5C5 4.63261 4.94732 4.75979 4.85355 4.85355L1.85355 7.85355C1.65829 8.04882 1.34171 8.04882 1.14645 7.85355ZM6 2.5C6 1.67157 6.67157 1 7.5 1H13.5C14.3284 1 15 1.67157 15 2.5V6.5C15 7.32843 14.3284 8 13.5 8H7.5C6.67157 8 6 7.32843 6 6.5V2.5ZM7.5 2C7.22386 2 7 2.22386 7 2.5V6.5C7 6.77614 7.22386 7 7.5 7H13.5C13.7761 7 14 6.77614 14 6.5V2.5C14 2.22386 13.7761 2 13.5 2H7.5ZM8.5 4C8.22386 4 8 4.22386 8 4.5C8 4.77614 8.22386 5 8.5 5H12.5C12.7761 5 13 4.77614 13 4.5C13 4.22386 12.7761 4 12.5 4H8.5ZM14.5625 13C14.8041 13 15 13.2239 15 13.5C15 13.7761 14.8041 14 14.5625 14H1.4375C1.19588 14 1 13.7761 1 13.5C1 13.2239 1.19588 13 1.4375 13H14.5625ZM15 10.5C15 10.2239 14.8041 10 14.5625 10H1.4375C1.19588 10 1 10.2239 1 10.5C1 10.7761 1.19588 11 1.4375 11H14.5625C14.8041 11 15 10.7761 15 10.5Z" fill="#757575"/>
</svg>
