<svg width="16" height="16" viewBox="0 0 16 16" fill="none" xmlns="http://www.w3.org/2000/svg">
<g clip-path="url(#clip0_1156_244797)">
<path fill-rule="evenodd" clip-rule="evenodd" d="M2.5 2C2.22386 2 2 2.22386 2 2.5V13.5C2 13.7761 2.22386 14 2.5 14H4V10.5C4 9.67157 4.67157 9 5.5 9H10.5C11.3284 9 12 9.67157 12 10.5V14H13.5C13.7761 14 14 13.7761 14 13.5V5.70711L10.2929 2H2.5ZM12 15H11.5H4.5H4H2.5C1.67157 15 1 14.3284 1 13.5V2.5C1 1.67157 1.67157 1 2.5 1H10.5H10.7071L10.8536 1.14645L14.8536 5.14645L15 5.29289V5.5V13.5C15 14.3284 14.3284 15 13.5 15H12ZM11 14V10.5C11 10.2239 10.7761 10 10.5 10H5.5C5.22386 10 5 10.2239 5 10.5V14H11ZM5 6.5C5 6.22386 5.22386 6 5.5 6H10.5C10.7761 6 11 6.22386 11 6.5C11 6.77614 10.7761 7 10.5 7H5.5C5.22386 7 5 6.77614 5 6.5Z" fill="#757575"/>
</g>
<defs>
<clipPath id="clip0_1156_244797">
<rect width="16" height="16" fill="white"/>
</clipPath>
</defs>
</svg>
