<svg width="16" height="16" viewBox="0 0 16 16" fill="none" xmlns="http://www.w3.org/2000/svg">
<g clip-path="url(#clip0_1168_245305)">
<path fill-rule="evenodd" clip-rule="evenodd" d="M4.93426 1C4.46609 1.12367 4.09508 1.36217 3.83008 1.71551C3.55625 2.06001 3.42374 2.46635 3.42374 2.94335C3.42374 3.24369 3.49441 3.49986 3.65341 3.69419C3.81241 3.88853 4.00675 3.99453 4.25409 3.99453C4.46609 3.99453 4.64276 3.92386 4.78409 3.8002C4.92543 3.66769 4.99609 3.49986 4.99609 3.29669C4.99609 3.09352 4.92543 2.92569 4.80176 2.79319C4.66042 2.66068 4.50142 2.59885 4.31592 2.59885C4.20992 2.59885 4.13925 2.60768 4.09508 2.63418C4.08625 2.42218 4.16575 2.21018 4.32475 2.01584C4.48376 1.80384 4.68692 1.66251 4.93426 1.58301V1ZM2.78774 1C2.31957 1.12367 1.94856 1.36217 1.68356 1.71551C1.40972 2.06001 1.27722 2.46635 1.27722 2.94335C1.27722 3.24369 1.35672 3.49986 1.51572 3.69419C1.66589 3.88853 1.86023 3.99453 2.10756 3.99453C2.31957 3.99453 2.50507 3.92386 2.6464 3.8002C2.7789 3.66769 2.84957 3.49986 2.84957 3.29669C2.84957 3.09352 2.7789 2.92569 2.6464 2.79319C2.5139 2.66068 2.3549 2.59885 2.1694 2.59885C2.0634 2.59885 1.99273 2.60768 1.94856 2.63418C1.93973 2.42218 2.01923 2.21018 2.18706 2.01584C2.34607 1.80384 2.5404 1.66251 2.78774 1.58301V1ZM13.5 2H7V1H13.5C14.3284 1 15 1.67157 15 2.5V14.5C15 15.3284 14.3284 16 13.5 16H3.5C2.67157 16 2 15.3284 2 14.5V6H3V14.5C3 14.7761 3.22386 15 3.5 15H13.5C13.7761 15 14 14.7761 14 14.5V2.5C14 2.22386 13.7761 2 13.5 2ZM10.446 12.2816C10.181 12.6349 9.81003 12.8734 9.34186 12.9971V12.4141C9.5892 12.3346 9.79237 12.1932 9.95137 11.9812C10.1104 11.7869 10.1899 11.5749 10.181 11.3629C10.1369 11.3894 10.0662 11.3982 9.9602 11.3982C9.7747 11.3982 9.6157 11.3364 9.47436 11.2039C9.3507 11.0714 9.28003 10.9035 9.28003 10.7004C9.28003 10.4972 9.3507 10.3294 9.49203 10.1969C9.63337 10.0732 9.81003 10.0025 10.022 10.0025C10.2694 10.0025 10.4637 10.1085 10.6227 10.3029C10.7817 10.4972 10.8524 10.7534 10.8524 11.0537C10.8524 11.5307 10.7199 11.9371 10.446 12.2816ZM12.5926 12.2816C12.3276 12.6349 11.9566 12.8734 11.4884 12.9971V12.4141C11.7357 12.3346 11.9301 12.1932 12.0891 11.9812C12.2569 11.7869 12.3364 11.5749 12.3276 11.3629C12.2834 11.3894 12.2127 11.3982 12.1067 11.3982C11.9212 11.3982 11.7622 11.3364 11.6297 11.2039C11.4972 11.0714 11.4266 10.9035 11.4266 10.7004C11.4266 10.4972 11.4972 10.3294 11.6297 10.1969C11.7711 10.0732 11.9566 10.0025 12.1686 10.0025C12.4159 10.0025 12.6102 10.1085 12.7604 10.3029C12.9194 10.4972 12.9989 10.7534 12.9989 11.0537C12.9989 11.5307 12.8664 11.9371 12.5926 12.2816Z" fill="#4E4272"/>
</g>
<defs>
<clipPath id="clip0_1168_245305">
<rect width="16" height="16" fill="white"/>
</clipPath>
</defs>
</svg>
